<?xml version="1.0" standalone="no"?>
<!DOCTYPE svg PUBLIC "-//W3C//DTD SVG 20010904//EN"
 "http://www.w3.org/TR/2001/REC-SVG-20010904/DTD/svg10.dtd">
<svg version="1.0" xmlns="http://www.w3.org/2000/svg"
 width="225.000000pt" height="225.000000pt" viewBox="0 0 225.000000 225.000000"
 preserveAspectRatio="xMidYMid meet">
<metadata>
Created by potrace 1.11, written by Peter Selinger 2001-2013
</metadata>
<g transform="translate(0.000000,225.000000) scale(0.100000,-0.100000)"
fill="#000000" stroke="none">
<path d="M1025 2069 c-4 -5 0 -18 9 -28 14 -15 24 -111 13 -111 -2 0 -23 18
-46 40 -55 53 -83 70 -126 80 -42 9 -45 -3 -15 -52 40 -66 17 -89 -41 -41 -28
24 -44 28 -106 31 -50 3 -73 1 -73 -7 0 -6 7 -14 15 -17 9 -4 27 -32 42 -63
14 -31 28 -60 31 -66 3 -5 -9 3 -27 20 -28 26 -40 30 -106 33 -91 5 -106 -10
-58 -61 17 -18 33 -42 36 -54 l5 -23 -25 20 c-14 11 -34 20 -44 20 -10 0 -21
5 -24 10 -8 12 -69 13 -93 1 -9 -5 -30 -14 -45 -20 -33 -13 -31 -35 4 -39 33
-5 89 -49 89 -71 0 -9 6 -23 13 -31 10 -12 9 -12 -6 -1 -26 20 -128 9 -166
-18 -16 -12 -33 -21 -39 -21 -5 0 -15 -7 -22 -15 -20 -24 3 -44 31 -27 26 17
70 -1 86 -35 11 -22 9 -23 -27 -23 -48 0 -134 -51 -154 -91 -17 -35 -12 -40
33 -34 26 4 43 0 60 -14 l24 -19 -34 -7 c-43 -9 -95 -48 -114 -85 -28 -54 -12
-98 24 -66 22 20 94 21 111 2 9 -12 5 -16 -24 -21 -28 -6 -42 -18 -70 -59 -43
-61 -50 -135 -11 -97 16 15 82 24 89 12 4 -5 -13 -28 -38 -51 -52 -48 -76 -94
-76 -144 0 -44 10 -45 50 -6 24 23 40 30 70 30 38 0 52 -12 31 -25 -35 -21
-70 -195 -40 -195 8 0 27 16 42 35 23 29 34 35 65 35 21 0 44 6 52 12 18 17
-7 -18 -32 -44 -25 -25 -41 -95 -33 -145 8 -52 26 -56 52 -10 13 22 32 37 57
44 l37 12 -18 -27 c-26 -39 -25 -152 1 -181 26 -28 33 -27 50 12 7 17 26 44
42 59 l29 27 -3 -71 c-2 -42 1 -75 7 -81 6 -6 11 -18 11 -27 0 -8 7 -26 16
-38 22 -31 54 -13 55 31 3 86 39 121 39 38 0 -55 32 -131 56 -131 8 0 14 -9
14 -21 0 -14 5 -19 17 -17 14 2 18 14 19 56 0 30 7 59 16 69 8 10 18 26 21 35
9 26 27 22 27 -6 0 -45 13 -86 26 -86 8 0 14 -6 14 -13 0 -19 73 -87 92 -87
24 0 34 21 14 32 -21 12 -21 86 0 136 l17 37 9 -50 c7 -40 19 -60 55 -97 47
-48 96 -69 116 -49 7 7 5 17 -9 32 -15 17 -19 35 -18 86 1 36 7 70 13 76 8 8
11 5 11 -11 0 -14 24 -46 65 -87 51 -51 71 -65 95 -65 16 0 30 2 30 5 0 2 -11
24 -25 49 -15 27 -25 61 -25 85 0 47 13 53 32 15 12 -23 35 -39 109 -73 31
-15 121 -10 127 7 2 6 -3 12 -10 12 -29 0 -88 80 -88 119 0 27 16 27 30 1 6
-11 19 -20 29 -20 10 0 24 -6 30 -14 7 -8 27 -18 44 -21 18 -3 42 -11 54 -17
16 -8 26 -7 44 5 l22 16 -35 21 c-21 12 -41 34 -48 53 -6 18 -16 41 -22 51 -8
16 -7 18 9 11 10 -4 29 -10 43 -13 14 -2 30 -8 35 -11 13 -8 37 -7 98 3 59 10
63 34 8 59 -21 9 -51 34 -68 55 l-30 37 77 0 c57 0 87 5 116 20 64 33 67 35
48 56 -12 14 -31 19 -66 19 -56 0 -61 10 -15 28 84 35 104 45 136 72 43 37 34
52 -28 44 -36 -5 -56 -2 -82 12 -31 17 -32 19 -11 22 12 2 22 7 22 11 0 5 13
14 29 20 34 15 101 83 101 105 0 20 -19 31 -33 17 -6 -6 -23 -11 -38 -11 -31
0 -105 29 -76 30 27 0 112 69 132 107 29 53 4 80 -43 47 -25 -17 -52 -13 -52
8 0 7 10 18 23 23 23 10 86 117 87 146 0 22 -40 32 -60 16 -25 -21 -70 -41
-76 -34 -3 3 4 21 17 39 13 18 30 43 37 57 14 28 16 127 2 136 -5 3 -23 -9
-40 -28 -39 -45 -126 -66 -90 -22 19 23 27 180 10 200 -16 20 -30 19 -30 -2 0
-17 -74 -93 -92 -93 -6 0 -3 10 6 25 18 27 22 114 7 143 -5 9 -12 25 -15 35
-8 27 -46 22 -46 -6 0 -24 -28 -57 -47 -57 -6 0 -13 -4 -15 -10 -1 -5 -4 25
-4 68 -1 60 -6 85 -24 115 -28 47 -50 49 -50 4 0 -24 -10 -45 -35 -73 l-34
-39 -1 43 c0 29 -8 55 -22 75 -13 17 -28 41 -33 52 -14 27 -45 32 -45 7 0 -10
-14 -40 -31 -65 -36 -55 -55 -70 -47 -39 4 12 2 25 -3 28 -5 3 -9 21 -9 41 0
28 -8 43 -36 69 -19 19 -44 34 -53 34 -16 0 -18 -6 -14 -43 4 -32 0 -48 -15
-67 l-20 -25 -21 25 c-11 14 -20 30 -21 35 0 21 -77 75 -106 75 -7 0 -16 -5
-19 -11z m254 -55 c12 -19 21 -44 21 -54 0 -10 5 -22 10 -25 17 -10 11 -55
-11 -86 -35 -50 -79 -33 -79 31 0 19 7 48 15 64 8 15 15 46 15 67 0 22 2 39 4
39 2 0 13 -16 25 -36z m-121 -117 c-3 -51 -4 -52 -36 -55 -24 -2 -38 2 -48 15
-16 21 -18 59 -4 68 6 3 10 30 10 58 l1 52 40 -43 c38 -40 40 -46 37 -95z
m-190 73 c61 -62 66 -150 8 -150 -35 0 -58 33 -64 92 -2 29 -9 58 -14 65 -12
14 -2 33 16 33 8 0 32 -18 54 -40z m502 -46 c0 -13 5 -26 10 -29 15 -9 12 -34
-7 -76 -15 -32 -23 -39 -47 -39 -33 0 -66 25 -66 50 0 10 14 35 31 56 17 21
33 51 36 67 5 26 7 27 24 11 11 -9 19 -27 19 -40z m-697 22 c42 -17 87 -70 87
-102 0 -14 -10 -30 -26 -41 -27 -17 -27 -17 -55 17 -16 19 -32 49 -35 67 -3
18 -12 37 -20 44 -35 29 -5 38 49 15z m860 -146 c-14 -72 -39 -99 -83 -85 -16
5 -20 15 -20 55 0 44 4 52 31 72 17 13 38 37 47 53 l16 30 7 -50 c4 -27 5 -61
2 -75z m-960 31 c47 -29 60 -77 27 -103 -12 -10 -29 -18 -37 -18 -19 0 -63 45
-63 64 0 9 -9 31 -20 51 -11 20 -20 37 -20 39 0 10 83 -14 113 -33z m546 -30
c28 -15 63 -14 88 4 19 14 23 12 47 -20 21 -28 34 -35 60 -35 19 0 39 7 46 15
19 22 27 18 34 -17 3 -18 16 -42 28 -55 22 -24 62 -31 73 -13 3 6 11 10 18 10
8 0 8 -3 -1 -12 -17 -17 -15 -59 4 -86 11 -16 25 -22 55 -22 38 0 39 -1 39
-33 0 -19 7 -49 16 -66 15 -29 20 -32 50 -29 34 4 34 4 34 -37 0 -45 13 -65
43 -65 17 0 16 -3 -8 -31 -32 -39 -27 -82 13 -116 l26 -22 -26 -6 c-40 -10
-55 -55 -34 -99 9 -20 21 -38 26 -41 5 -3 -2 -22 -15 -42 -30 -43 -31 -60 -6
-92 18 -24 18 -25 -1 -41 -15 -12 -21 -28 -21 -58 0 -26 -4 -42 -12 -42 -6 0
-24 -10 -38 -23 -22 -18 -27 -32 -27 -65 0 -39 -2 -43 -21 -37 -11 4 -34 1
-50 -5 -26 -11 -29 -17 -29 -56 l0 -43 -31 9 c-50 15 -105 -28 -97 -74 5 -24
4 -24 -16 -11 -33 24 -83 19 -110 -10 -27 -29 -39 -31 -56 -10 -28 34 -120 1
-120 -43 0 -9 -8 -5 -21 12 -25 32 -73 35 -104 6 l-22 -20 -18 20 c-14 15 -31
20 -71 20 -46 0 -56 -4 -70 -25 -19 -29 -34 -24 -34 10 0 31 -33 49 -76 42
-31 -5 -34 -3 -34 19 0 40 -35 66 -83 62 -39 -2 -42 -1 -48 30 -9 42 -26 62
-55 62 -17 0 -22 4 -18 15 4 8 3 31 0 50 -8 39 -55 70 -90 59 -19 -6 -19 -6
-3 10 9 10 17 33 17 51 0 27 -7 39 -33 59 -19 15 -39 26 -45 26 -15 0 -16 17
-2 25 17 11 11 58 -11 81 l-20 21 20 37 c26 46 26 58 1 81 -25 23 -25 47 0 70
23 21 26 62 5 89 -19 25 -19 36 0 36 27 0 57 60 50 103 -4 31 -2 37 13 37 10
0 29 11 41 24 19 20 22 33 20 69 -2 25 -1 43 4 40 4 -2 21 -2 37 2 36 8 64 55
57 94 l-5 26 15 -22 c18 -26 49 -29 88 -9 35 18 45 33 45 69 0 27 13 36 25 17
3 -5 21 -10 40 -10 26 0 39 7 59 32 l25 32 24 -22 c30 -28 74 -28 104 0 20 19
27 20 43 10 30 -18 75 -14 96 9 18 20 18 20 26 0 4 -11 16 -24 27 -30z m546
-41 c13 -60 -21 -140 -70 -166 -25 -13 -30 -13 -47 2 -35 32 -23 72 40 135 31
31 60 58 64 58 3 1 9 -12 13 -29z m-1255 -3 c66 -30 91 -85 49 -107 -33 -18
-68 -4 -86 35 -9 19 -21 35 -27 35 -12 1 -56 35 -56 43 0 17 79 13 120 -6z
m1390 -109 c0 -41 -43 -131 -72 -150 -41 -26 -56 -28 -80 -8 l-23 18 20 38
c11 20 35 47 55 59 19 12 46 34 59 49 32 34 41 33 41 -6z m-1456 -42 c45 -23
55 -44 39 -78 -22 -43 -65 -39 -115 12 -22 22 -49 40 -59 40 -27 0 -24 19 4
24 12 3 31 7 42 9 39 9 63 7 89 -7z m1559 -113 c-7 -42 -24 -75 -56 -106 -23
-22 -37 -27 -65 -25 -29 2 -37 8 -45 31 -7 23 -5 33 13 52 12 13 37 26 57 30
19 3 49 15 66 26 18 10 33 19 33 19 1 0 -1 -12 -3 -27z m-1623 -40 c29 -25 27
-76 -5 -97 -23 -15 -26 -14 -62 6 -21 12 -40 25 -43 29 -3 4 -20 11 -38 16
l-34 8 39 27 c46 32 113 37 143 11z m1670 -123 c0 -22 -41 -90 -54 -90 -7 0
-19 -7 -26 -15 -15 -18 -81 -20 -98 -3 -7 7 -12 25 -12 40 0 32 28 48 85 48
18 0 46 7 61 15 34 18 44 19 44 5z m-1703 -42 c33 -31 29 -55 -12 -75 -33 -16
-36 -15 -55 2 -13 12 -37 18 -68 19 -42 1 -48 4 -44 19 6 25 70 56 116 57 27
0 47 -7 63 -22z m1702 -135 c9 -8 -36 -57 -69 -74 -34 -19 -93 -25 -124 -13
-26 10 -18 40 19 73 34 29 37 30 102 24 38 -3 70 -7 72 -10z m-1707 -20 c34
-32 34 -40 6 -70 -22 -24 -52 -30 -63 -13 -3 6 -32 10 -63 10 l-56 0 39 40
c21 22 47 40 56 40 10 0 21 5 24 10 10 17 27 11 57 -17z m8 -155 c11 -12 20
-26 20 -30 0 -20 -34 -58 -51 -58 -10 0 -21 -4 -24 -10 -3 -5 -24 -10 -45 -10
-21 0 -50 -4 -64 -10 -21 -8 -24 -7 -19 8 12 33 72 99 105 115 44 22 53 21 78
-5z m1635 1 c5 -5 19 -9 32 -9 13 0 23 -3 23 -7 0 -13 -34 -43 -49 -43 -9 0
-25 -7 -35 -15 -21 -16 -53 -19 -80 -9 -11 4 -16 19 -16 45 0 32 5 42 23 49
24 10 87 4 102 -11z m-1557 -141 c32 -32 -2 -88 -54 -88 -18 0 -46 -8 -63 -17
-56 -33 -52 11 9 81 24 27 40 36 64 36 18 0 37 -5 44 -12z m1473 -1 c13 -7 44
-25 69 -41 39 -26 42 -30 25 -37 -11 -4 -50 -8 -86 -8 -69 -1 -79 5 -79 47 0
16 28 52 40 52 4 0 18 -6 31 -13z m-71 -132 c7 -8 18 -15 25 -15 6 0 20 -9 30
-20 10 -11 31 -20 47 -20 40 0 35 -16 -9 -30 -21 -7 -42 -16 -47 -21 -19 -17
-51 -9 -83 22 -37 34 -41 54 -16 81 20 22 36 23 53 3z m-1315 -24 c3 -11 1
-28 -6 -38 -13 -20 -75 -63 -91 -63 -6 0 -20 -7 -30 -17 -17 -15 -18 -15 -18
11 0 38 36 114 57 119 46 12 82 7 88 -12z m67 -98 c31 -28 22 -60 -34 -121
-29 -31 -54 -59 -55 -61 -9 -14 -16 16 -15 64 0 37 6 63 16 74 9 10 16 22 16
28 0 8 33 30 49 32 3 1 13 -6 23 -16z m1201 -51 c69 -68 73 -87 19 -78 -49 7
-99 32 -134 64 -33 31 -34 32 -7 61 28 30 52 21 122 -47z m-166 -34 c6 -5 15
-23 18 -39 4 -16 11 -31 16 -34 5 -4 9 -13 9 -22 0 -9 10 -28 23 -41 l22 -25
-33 6 c-18 4 -53 23 -76 42 -24 19 -48 35 -55 35 -17 0 -13 61 6 82 16 18 44
17 70 -4z m-912 -8 c22 -24 14 -60 -24 -109 -16 -20 -31 -46 -35 -58 -9 -28
-22 -29 -36 -4 -23 44 -7 126 32 169 26 27 40 28 63 2z m767 -77 c15 -15 28
-35 28 -44 0 -10 5 -21 10 -24 6 -3 10 -17 10 -29 0 -13 7 -29 15 -36 19 -16
19 -30 0 -30 -52 0 -145 84 -145 131 0 24 26 59 44 59 5 0 23 -12 38 -27z
m-636 -18 c18 -28 17 -32 -31 -110 -13 -22 -24 -49 -25 -60 -1 -44 -32 26 -37
85 -5 46 -2 63 13 84 24 33 59 33 80 1z m470 3 c34 -41 47 -69 35 -81 -13 -13
-15 -64 -2 -71 5 -3 11 -19 13 -35 l4 -30 -40 36 c-56 50 -65 64 -66 94 0 14
-4 29 -10 35 -14 14 10 74 30 74 9 0 25 -10 36 -22z m-316 -4 c8 -3 21 -17 27
-31 11 -23 10 -30 -12 -59 -14 -18 -25 -39 -25 -48 0 -8 -4 -18 -10 -21 -5 -3
-11 -18 -11 -33 -1 -21 -2 -22 -6 -7 -3 11 -12 27 -20 36 -8 10 -17 42 -20 73
-5 50 -3 60 17 82 13 13 29 22 34 19 6 -3 18 -7 26 -11z m155 -12 c6 -4 16
-19 24 -34 12 -23 12 -32 2 -52 -8 -14 -12 -46 -10 -78 4 -48 2 -54 -13 -50
-10 2 -18 10 -18 17 0 6 -8 19 -19 29 -10 9 -26 34 -36 56 -17 37 -17 41 -1
74 14 29 25 38 56 45 3 0 10 -3 15 -7z"/>
<path d="M953 1743 c-17 -2 -58 -17 -89 -34 -32 -16 -63 -29 -69 -29 -6 0 -36
-22 -67 -50 -31 -27 -60 -50 -66 -50 -12 0 -92 -81 -92 -93 0 -5 -13 -26 -30
-47 -16 -21 -30 -45 -30 -53 0 -8 -7 -20 -15 -27 -8 -7 -15 -23 -15 -36 0 -13
-7 -44 -16 -70 -18 -54 -21 -231 -4 -248 5 -5 10 -24 10 -42 0 -17 7 -37 15
-44 9 -8 15 -30 15 -56 0 -24 4 -44 9 -44 5 0 16 -15 26 -32 9 -18 22 -42 28
-54 15 -26 179 -174 193 -174 6 0 19 -9 29 -20 10 -11 28 -20 39 -20 12 0 30
-6 41 -14 11 -7 36 -17 55 -21 19 -4 40 -11 45 -15 16 -13 262 -15 277 -3 7 6
29 14 48 18 19 4 40 11 45 15 6 5 27 11 49 14 21 4 55 20 76 36 21 17 43 30
48 30 6 0 17 6 24 14 7 8 37 39 67 70 57 59 70 78 96 136 9 19 20 43 25 52 6
10 10 28 10 40 0 12 7 29 15 39 10 10 20 53 27 113 11 93 10 99 -17 184 -16
48 -32 92 -36 97 -4 6 -10 25 -14 43 -4 18 -13 36 -21 39 -8 3 -14 11 -14 18
0 7 -7 18 -15 25 -8 7 -15 20 -15 29 0 18 -69 91 -86 91 -5 0 -28 18 -49 40
-22 22 -49 40 -61 40 -12 0 -27 7 -34 15 -7 8 -18 15 -24 15 -7 0 -39 14 -72
31 -56 29 -66 30 -194 33 -74 2 -149 1 -167 -1z m65 -45 c-2 -13 -10 -23 -18
-23 -8 0 -16 10 -18 23 -3 17 2 22 18 22 16 0 21 -5 18 -22z m121 15 c0 -5 -4
-16 -8 -27 -7 -17 -9 -16 -24 8 -17 26 -17 26 8 26 14 0 25 -3 24 -7z m-49
-90 c1 -52 54 -6 67 57 10 50 33 18 33 -46 0 -47 2 -54 20 -54 11 0 20 6 20
13 0 8 16 31 36 53 l35 39 -4 -72 c-4 -66 -3 -73 14 -73 12 0 19 7 19 20 0 11
5 20 11 20 6 0 24 9 41 21 30 22 49 20 31 -3 -15 -19 -27 -98 -15 -98 6 0 34
16 62 35 29 20 54 34 56 32 6 -5 -34 -85 -46 -92 -5 -3 -10 -13 -10 -21 0 -13
8 -14 43 -9 23 4 46 11 51 16 6 5 19 9 30 9 19 0 19 -1 -2 -23 -12 -13 -22
-28 -22 -34 0 -6 -7 -16 -15 -23 -26 -21 -6 -32 47 -25 47 7 49 6 40 -12 -6
-10 -22 -25 -36 -33 -54 -28 -26 -45 78 -49 33 -1 37 -3 26 -16 -7 -8 -18 -15
-24 -15 -20 0 -70 -46 -62 -58 4 -7 30 -12 58 -12 l51 0 -26 -20 c-14 -11 -30
-20 -36 -20 -6 0 -15 -8 -20 -19 -11 -21 9 -35 67 -46 48 -10 34 -30 -24 -33
-81 -4 -83 -8 -28 -64 l49 -50 -57 6 c-46 5 -58 3 -58 -8 0 -7 7 -19 16 -27 8
-7 22 -25 29 -40 14 -26 13 -27 -8 -22 -12 3 -36 12 -54 21 -40 20 -53 9 -31
-26 30 -49 51 -93 46 -98 -3 -2 -28 7 -56 21 -27 14 -55 25 -61 25 -17 0 -13
-26 9 -67 36 -68 24 -80 -30 -33 -50 42 -64 39 -56 -10 3 -23 12 -50 18 -60
10 -15 10 -22 0 -32 -14 -14 -45 11 -71 57 l-16 30 -5 -65 c-6 -74 -22 -85
-50 -33 -21 39 -40 63 -50 63 -4 0 -13 -25 -20 -55 -15 -63 -30 -66 -45 -9 -6
21 -16 48 -23 59 -12 20 -12 20 -27 1 -8 -11 -18 -34 -21 -52 -7 -38 -35 -70
-33 -38 1 11 1 38 1 62 -3 69 -37 50 -83 -47 -22 -46 -32 -25 -24 53 10 86 -5
93 -62 30 -41 -46 -44 -47 -38 -20 19 87 19 86 -3 86 -12 0 -24 -5 -27 -10 -4
-6 -24 -20 -47 -31 l-40 -20 7 23 c4 13 13 30 20 38 7 8 15 27 19 42 7 31 4
31 -71 -3 -24 -10 -47 -19 -52 -19 -5 0 6 23 25 51 19 28 34 56 34 61 0 6 -26
8 -72 3 l-73 -6 53 46 c28 26 50 50 47 54 -2 5 -39 6 -82 4 l-78 -5 59 36 c32
20 63 36 68 36 5 0 8 6 6 13 -3 7 -25 13 -54 15 -27 1 -60 5 -74 8 l-25 6 25
13 c14 8 32 14 41 15 9 0 27 9 40 19 l24 19 -45 20 c-25 11 -53 23 -62 26 -28
8 -21 26 10 26 15 0 32 4 38 9 5 5 20 11 34 13 27 3 41 35 18 42 -86 25 -98
30 -98 48 0 16 9 18 70 18 56 0 70 3 70 15 0 8 -6 15 -12 15 -21 1 -82 56 -75
68 7 10 43 6 62 -8 6 -4 21 -10 33 -13 23 -5 24 -4 17 31 -4 20 -16 49 -27 65
-29 41 -16 44 43 7 44 -27 54 -29 66 -18 11 12 10 21 -12 62 -14 27 -24 51
-21 53 3 3 17 -4 32 -16 15 -11 33 -21 40 -21 8 0 14 -7 14 -15 0 -18 12 -19
27 -4 12 12 7 64 -7 84 -4 6 -10 19 -14 30 -7 18 -5 18 17 -3 13 -12 28 -22
34 -22 6 0 13 -9 16 -21 4 -15 12 -20 29 -17 19 2 24 10 26 41 2 21 -2 45 -9
53 -8 10 -9 18 -2 25 10 10 28 -10 59 -65 6 -11 16 -22 22 -24 13 -4 42 59 42
92 1 17 5 14 20 -14 11 -19 19 -45 20 -57z m159 74 c8 -11 6 -18 -9 -32 -20
-18 -20 -17 -20 13 0 34 10 41 29 19z m-359 -42 c0 -23 -2 -25 -22 -14 -21 11
-21 12 -3 25 25 18 25 18 25 -11z m468 -25 c-19 -15 -24 -16 -26 -4 -2 8 -1
22 2 30 4 12 10 13 26 4 21 -11 21 -11 -2 -30z m-568 -27 c0 -36 0 -36 -20
-18 -19 17 -19 19 -4 37 23 24 24 24 24 -19z m676 2 c19 -15 19 -15 0 -30 -29
-22 -36 -19 -36 15 0 34 7 37 36 15z m-758 -74 c10 -28 9 -29 -11 -22 -12 5
-23 18 -25 30 -5 32 24 26 36 -8z m872 -24 c0 -3 -13 -7 -29 -9 -23 -3 -28 -1
-23 11 9 24 24 31 39 16 7 -8 13 -16 13 -18z m-945 -68 c10 -16 0 -21 -29 -13
-14 3 -23 10 -20 15 7 12 41 11 49 -2z m1005 -25 c0 -8 -9 -14 -20 -14 -22 0
-28 26 -7 33 16 6 27 -1 27 -19z m-1061 -80 c2 -2 -13 -4 -34 -4 -32 0 -36 2
-25 15 9 11 17 12 34 3 11 -6 23 -12 25 -14z m1111 7 c0 -5 3 -16 6 -24 4 -11
-1 -13 -20 -10 -29 6 -32 13 -14 31 14 14 28 16 28 3z m-1143 -125 c-2 -6 -16
-12 -30 -14 -29 -4 -30 -2 -21 21 6 17 57 10 51 -7z m1181 -9 c4 -19 -6 -21
-27 -8 -16 10 -5 34 12 28 7 -2 13 -11 15 -20z m12 -97 c0 -13 -7 -20 -20 -20
-23 0 -26 10 -8 28 18 18 28 15 28 -8z m-1200 -10 c13 0 13 -1 0 -10 -24 -16
-60 -12 -60 6 0 12 6 15 23 10 12 -3 29 -6 37 -6z m20 -108 c0 -8 -43 -32 -55
-32 -3 0 -5 9 -5 20 0 16 7 20 30 20 17 0 30 -4 30 -8z m1170 -17 c0 -14 -4
-25 -8 -25 -5 0 -19 11 -32 25 l-23 25 31 0 c27 0 32 -4 32 -25z m-1156 -100
c-19 -29 -29 -31 -38 -9 -9 22 -9 22 22 27 15 2 28 5 30 6 1 0 -5 -10 -14 -24z
m1126 1 c0 -22 -19 -30 -35 -16 -22 18 -18 30 10 30 15 0 25 -6 25 -14z
m-1065 -106 c-22 -23 -31 -27 -42 -18 -18 15 0 35 35 41 15 2 29 5 31 6 3 0
-8 -12 -24 -29z m1013 15 c5 -5 -22 -45 -30 -45 -5 0 -8 6 -8 14 0 8 -3 22 -7
31 -5 14 -2 16 18 10 13 -4 25 -9 27 -10z m-108 -77 c35 -25 38 -44 10 -51
-14 -4 -20 0 -20 12 0 9 -7 27 -16 39 -19 28 -11 28 26 0z m-830 -25 c0 -5 -5
-15 -10 -23 -7 -11 -12 -12 -21 -3 -6 6 -8 16 -5 22 8 12 36 15 36 4z m99 -72
c-8 -22 -16 -30 -26 -27 -8 3 -20 6 -26 6 -7 0 4 14 23 29 19 16 36 28 37 27
2 -2 -2 -17 -8 -35z m657 8 c16 -17 16 -22 4 -29 -22 -14 -35 -7 -38 23 -4 32
8 34 34 6z m-556 -48 c0 -28 -22 -47 -41 -35 -11 6 17 64 31 64 6 0 10 -13 10
-29z m454 -32 c-10 -17 -20 -9 -22 19 -1 25 -1 26 13 8 8 -10 12 -23 9 -27z
m-334 -20 c0 -29 -13 -36 -39 -20 -11 7 -10 13 5 34 23 30 34 26 34 -14z m222
16 c4 -19 1 -25 -12 -25 -13 0 -16 6 -12 25 2 14 8 25 12 25 4 0 10 -11 12
-25z m-92 -39 c0 -8 -55 -8 -63 0 -3 4 1 17 10 30 l15 24 19 -24 c10 -13 19
-27 19 -30z"/>
<path d="M1282 1403 c-12 -2 -46 -26 -74 -52 l-53 -48 2 -116 c1 -115 2 -117
34 -157 18 -22 29 -43 26 -47 -4 -4 -13 -1 -19 5 -19 19 -44 14 -58 -13 -16
-31 -11 -37 36 -41 28 -2 41 2 55 19 24 29 24 35 -10 99 -16 30 -32 76 -36
104 l-8 49 22 -20 c34 -30 211 -35 261 -7 46 26 48 44 8 87 -27 29 -42 37 -85
42 -79 9 -115 -2 -162 -49 -44 -45 -51 -37 -22 28 23 50 81 84 145 84 25 0 46
-3 48 -7 6 -14 69 -55 75 -49 10 10 -6 34 -41 61 -36 27 -95 39 -144 28z m40
-160 c3 -21 8 -46 12 -55 7 -15 3 -18 -17 -18 -14 0 -29 5 -32 10 -3 6 -17 10
-30 10 -50 0 -38 50 18 74 45 20 44 20 49 -21z m75 -31 c12 -2 31 2 42 8 17 9
21 8 21 -4 0 -19 -67 -33 -89 -19 -19 12 -26 47 -15 71 6 13 9 8 13 -18 5 -26
12 -36 28 -38z"/>
<path d="M760 1351 c-45 -41 -53 -52 -42 -63 11 -10 17 -7 38 20 14 17 33 32
43 32 9 0 22 5 27 10 29 29 164 0 164 -35 0 -8 9 -15 20 -15 45 0 9 51 -59 84
-19 9 -57 16 -85 16 -47 0 -55 -4 -106 -49z"/>
<path d="M835 1303 c-72 -10 -126 -112 -71 -133 13 -5 27 -14 31 -19 8 -15
149 -14 178 1 12 6 29 14 37 18 39 18 14 83 -45 120 -31 19 -63 22 -130 13z
m23 -85 c-3 -50 -4 -53 -28 -50 -28 4 -60 29 -60 47 0 22 39 47 83 54 4 0 7
-23 5 -51z m62 18 c0 -28 4 -35 25 -40 14 -4 31 -3 38 1 7 4 7 0 -2 -10 -16
-20 -61 -23 -79 -5 -18 18 -16 88 3 88 10 0 15 -10 15 -34z"/>
<path d="M1057 993 c-4 -3 -7 -15 -7 -25 0 -13 8 -18 29 -18 37 0 50 19 26 37
-21 14 -38 17 -48 6z"/>
<path d="M1047 854 c-15 -8 -37 -12 -47 -9 -15 5 -20 2 -20 -10 0 -14 7 -16
38 -13 20 3 45 8 54 12 14 6 17 3 15 -21 -2 -25 1 -28 34 -31 30 -2 37 1 42
17 4 17 13 21 47 21 29 0 40 4 37 13 -2 6 -12 11 -21 9 -10 -2 -24 2 -32 9 -8
6 -27 9 -44 6 -16 -4 -32 -2 -35 3 -9 14 -36 12 -68 -6z"/>
<path d="M1050 743 c0 -7 5 -13 12 -13 6 0 19 -7 29 -16 15 -13 23 -14 52 -3
19 6 39 19 44 28 9 15 3 17 -63 16 -52 0 -74 -4 -74 -12z"/>
</g>
</svg>
